<?xml version="1.0" encoding="UTF-8" standalone="no"?>
<!-- Created with Inkscape (http://www.inkscape.org/) -->
<svg
   xmlns:dc="http://purl.org/dc/elements/1.1/"
   xmlns:cc="http://creativecommons.org/ns#"
   xmlns:rdf="http://www.w3.org/1999/02/22-rdf-syntax-ns#"
   xmlns:svg="http://www.w3.org/2000/svg"
   xmlns="http://www.w3.org/2000/svg"
   xmlns:xlink="http://www.w3.org/1999/xlink"
   xmlns:sodipodi="http://sodipodi.sourceforge.net/DTD/sodipodi-0.dtd"
   xmlns:inkscape="http://www.inkscape.org/namespaces/inkscape"
   width="210mm"
   height="297mm"
   id="svg2"
   sodipodi:version="0.32"
   inkscape:version="0.46"
   sodipodi:docname="Air.svg"
   inkscape:output_extension="org.inkscape.output.svg.inkscape">
  <defs
     id="defs4">
    <linearGradient
       id="linearGradient3301">
      <stop
         style="stop-color:#474979;stop-opacity:1;"
         offset="0"
         id="stop3303" />
      <stop
         style="stop-color:#4c52e4;stop-opacity:0.52830189;"
         offset="1"
         id="stop3305" />
    </linearGradient>
    <linearGradient
       inkscape:collect="always"
       id="linearGradient3291">
      <stop
         style="stop-color:#3038ff;stop-opacity:1;"
         offset="0"
         id="stop3293" />
      <stop
         style="stop-color:#3038ff;stop-opacity:0;"
         offset="1"
         id="stop3295" />
    </linearGradient>
    <inkscape:perspective
       sodipodi:type="inkscape:persp3d"
       inkscape:vp_x="0 : 526.18109 : 1"
       inkscape:vp_y="0 : 1000 : 0"
       inkscape:vp_z="744.09448 : 526.18109 : 1"
       inkscape:persp3d-origin="372.04724 : 350.78739 : 1"
       id="perspective10" />
    <linearGradient
       inkscape:collect="always"
       xlink:href="#linearGradient3291"
       id="linearGradient3297"
       x1="82.607879"
       y1="421.83908"
       x2="557.83082"
       y2="421.83908"
       gradientUnits="userSpaceOnUse" />
    <linearGradient
       inkscape:collect="always"
       xlink:href="#linearGradient3301"
       id="linearGradient3307"
       x1="128.7386"
       y1="467.47794"
       x2="603.97896"
       y2="467.47794"
       gradientUnits="userSpaceOnUse" />
  </defs>
  <sodipodi:namedview
     id="base"
     pagecolor="#ffffff"
     bordercolor="#666666"
     borderopacity="1.0"
     inkscape:pageopacity="0.0"
     inkscape:pageshadow="2"
     inkscape:zoom="0.49497475"
     inkscape:cx="173.72838"
     inkscape:cy="629.53886"
     inkscape:document-units="px"
     inkscape:current-layer="layer1"
     showgrid="false"
     inkscape:window-width="1600"
     inkscape:window-height="1153"
     inkscape:window-x="0"
     inkscape:window-y="20" />
  <metadata
     id="metadata7">
    <rdf:RDF>
      <cc:Work
         rdf:about="">
        <dc:format>image/svg+xml</dc:format>
        <dc:type
           rdf:resource="http://purl.org/dc/dcmitype/StillImage" />
      </cc:Work>
    </rdf:RDF>
  </metadata>
  <g
     inkscape:label="Ebene 1"
     inkscape:groupmode="layer"
     id="layer1">
    <path
       sodipodi:type="spiral"
       style="fill:none;fill-rule:evenodd;stroke:#000000;stroke-width:1px;stroke-linecap:butt;stroke-linejoin:miter;stroke-opacity:1"
       id="path2383"
       sodipodi:cx="361.42856"
       sodipodi:cy="530.93359"
       sodipodi:expansion="1"
       sodipodi:revolution="3.0749919"
       sodipodi:radius="286.89044"
       sodipodi:argument="-17.615093"
       sodipodi:t0="0"
       d="M 361.42856,530.93359 C 366.05999,544.18075 345.85665,543.71235 339.41092,538.63134 C 321.9434,524.86211 330.87273,498.29231 346.03307,486.89831 C 373.15137,466.51712 411.1344,480.90261 427.48148,507.84037 C 451.47147,547.37261 431.0227,598.09895 392.21953,619.00415 C 340.501,646.8675 276.65575,620.13819 251.34036,569.42231 C 219.48352,505.60154 252.58705,428.48094 315.2421,398.82775 C 391.12577,362.91377 481.60222,402.43948 515.55204,477.04939 C 555.56073,564.97459 509.58518,668.85397 423.0105,707.07471 C 323.05661,751.20207 205.7443,698.75933 163.2698,600.21328 C 115.00758,488.239 173.92911,357.47341 284.45113,310.7572 C 408.44014,258.34866 552.67343,323.7571 603.6226,446.25842 C 660.18582,582.25812 588.28458,739.96975 453.80147,795.14527 C 412.51295,812.08506 367.31824,818.92449 322.85721,815.21932"
       transform="translate(-18.571429,-87.142857)" />
    <path
       d="M 361.42856,530.93359 C 366.05999,544.18075 345.85665,543.71235 339.41092,538.63134 C 321.9434,524.86211 330.87273,498.29231 346.03307,486.89831 C 373.15137,466.51712 411.1344,480.90261 427.48148,507.84037 C 451.47147,547.37261 431.0227,598.09895 392.21953,619.00415 C 340.501,646.8675 276.65575,620.13819 251.34036,569.42231 C 219.48352,505.60154 252.58705,428.48094 315.2421,398.82775 C 391.12577,362.91377 481.60222,402.43948 515.55204,477.04939 C 555.56073,564.97459 509.58518,668.85397 423.0105,707.07471 C 323.05661,751.20207 205.7443,698.75933 163.2698,600.21328 C 115.00758,488.239 173.92911,357.47341 284.45113,310.7572 C 408.44014,258.34866 552.67343,323.7571 603.6226,446.25842 C 660.18582,582.25812 588.28458,739.96975 453.80147,795.14527 C 412.51295,812.08506 367.31824,818.92449 322.85721,815.21932"
       sodipodi:t0="0"
       sodipodi:argument="-17.615093"
       sodipodi:radius="286.89044"
       sodipodi:revolution="3.0749919"
       sodipodi:expansion="1"
       sodipodi:cy="530.93359"
       sodipodi:cx="361.42856"
       id="path2385"
       style="fill:none;fill-rule:evenodd;stroke:#000000;stroke-width:1px;stroke-linecap:butt;stroke-linejoin:miter;stroke-opacity:1"
       sodipodi:type="spiral"
       transform="matrix(-1,0,0,-1,705.0598,975.88039)" />
    <path
       style="fill:none;fill-rule:evenodd;stroke:#000000;stroke-width:1px;stroke-linecap:butt;stroke-linejoin:miter;stroke-opacity:1"
       d="M 381.83766,160.90256 L 379.81736,206.8645"
       id="path2399"
       inkscape:connector-type="polyline" />
    <path
       style="fill:none;fill-rule:evenodd;stroke:#000000;stroke-width:1px;stroke-linecap:butt;stroke-linejoin:miter;stroke-opacity:1"
       d="M 305.06607,728.60829 L 307.08637,681.13112"
       id="path2401"
       inkscape:connector-type="polyline" />
    <path
       style="opacity:0.92936801999999996;fill:url(#linearGradient3297);fill-opacity:1;fill-rule:evenodd;stroke:#29456c;stroke-width:1.01015258000000000;stroke-opacity:1"
       d="M 316.96801,682.16029 C 316.69022,681.87422 312.37182,681.32762 307.37156,680.94548 C 256.04127,677.02276 200.87374,651.52889 160.41823,613.03576 C 83.364378,539.71958 61.684989,426.48603 105.46817,326.02631 C 138.68226,249.81717 202.97739,193.5711 282.37191,171.26902 C 308.18262,164.01874 329.87595,161.19381 359.74212,161.19381 L 380.81026,161.19381 L 380.15609,179.6291 C 379.79627,189.7685 379.27544,199.65537 378.99855,201.59991 L 378.49509,205.13545 L 356.06526,205.13545 C 333.48249,205.13545 325.13419,205.91491 307.37156,209.68189 C 227.83553,226.54936 163.66304,284.41377 137.77148,362.61054 C 124.64913,402.24216 123.55559,448.02324 134.77688,487.97816 C 160.40696,579.23738 248.82929,642.21041 342.49578,635.91232 C 400.68188,631.99991 452.24916,601.58465 484.01482,552.44189 C 510.55173,511.38826 518.90983,460.01221 506.51274,414.15092 C 498.65486,385.08128 484.10715,361.06056 461.43306,339.71608 C 433.03959,312.98763 394.91967,297.62871 356.86904,297.5861 C 294.45616,297.51621 241.68023,336.78932 224.54564,396.05428 C 220.7786,409.08367 219.67866,419.16407 220.2557,435.36897 C 221.22621,462.62444 230.12392,485.4481 247.75367,505.90463 C 270.78828,532.63263 308.96023,547.80819 341.27198,543.08359 C 374.1184,538.28084 399.11362,520.05712 412.43026,491.203 C 418.13136,478.84995 419.45213,472.42794 419.42991,457.16851 C 419.41203,444.92749 419.12414,442.70417 416.61795,435.45023 C 412.58875,423.78819 407.08685,415.15286 398.47157,406.96918 C 378.19184,387.70542 349.82727,383.88204 329.23056,397.63597 C 322.1005,402.39726 317.96099,407.2782 314.33384,415.20102 C 305.04892,435.48186 313.93735,455.35023 332.29506,455.35023 C 341.18773,455.35022 343.63887,453.28838 344.04707,445.46494 C 344.39477,438.79977 345.92737,436.41129 350.50094,435.40676 C 361.41099,433.01052 371.94294,441.15657 373.84778,453.46459 C 375.30321,462.86934 369.81455,477.22701 361.84455,484.86365 C 349.92697,496.2827 333.99403,500.03801 316.47425,495.5572 C 299.32439,491.17099 283.34499,478.07825 275.78601,462.21927 C 261.12597,431.462 268.91607,396.31207 296.07786,370.65912 C 308.25636,359.15719 323.96352,351.3996 341.9708,347.99307 C 352.00273,346.09531 373.11159,347.32664 384.03911,350.44707 C 401.65638,355.47776 416.67239,364.15131 430.29238,377.16381 C 447.49922,393.60312 458.35533,413.71083 463.07678,437.88715 C 464.81546,446.79014 465.03254,467.90862 463.48498,477.59619 C 460.73191,494.82946 452.65867,514.8772 442.13854,530.60413 C 435.44345,540.61294 416.72927,559.37912 406.87159,565.96914 C 390.44863,576.94812 372.49176,584.0731 352.32335,587.61282 C 339.98525,589.77825 314.44162,589.26578 301.97331,586.60262 C 248.33401,575.14558 205.12466,538.29087 186.34363,487.97816 C 158.82033,414.24573 189.39049,327.21198 258.37917,282.89165 C 277.23094,270.78074 302.83022,260.83325 326.24354,256.52065 C 339.44664,254.08867 373.14866,254.07859 387.17362,256.50238 C 429.62558,263.83894 467.06426,283.10483 497.26055,313.15302 C 530.7563,346.48454 550.47861,386.80791 556.32235,433.9085 C 557.81747,445.95983 557.60756,472.89006 555.92051,485.45278 C 548.41568,541.3368 519.24318,593.89048 475.3761,630.55175 C 444.88535,656.03405 404.95866,673.71006 363.94011,679.88593 C 353.16764,681.50783 317.98857,683.21115 316.96801,682.16029 z"
       id="path3289" />
    <path
       style="opacity:0.92936801999999996;fill:url(#linearGradient3307);fill-opacity:1;fill-rule:evenodd;stroke:#29456c;stroke-width:1.01015258000000000;stroke-opacity:1"
       d="M 308.07564,727.16956 C 305.85613,726.74509 305.77421,726.41497 306.29292,719.98343 C 306.59183,716.27577 307.11266,706.64073 307.45015,698.57224 L 308.06372,683.9023 L 329.43602,683.87998 C 344.45305,683.86432 354.26244,683.33762 362.42488,682.10887 C 441.68842,670.17635 505.37439,622.73077 538.93813,550.60762 C 569.21361,485.54988 565.90647,410.46533 530.17071,351.56647 C 498.50758,299.38013 447.55074,264.91483 386.66854,254.50716 C 373.84455,252.31495 341.97424,252.03527 329.59492,254.00632 C 304.13201,258.06055 279.01668,267.33983 259.10314,280.05061 C 192.35393,322.6566 160.31028,401.68116 180.11562,474.84618 C 188.25497,504.91451 204.35828,530.95214 227.39747,551.29665 C 286.87395,603.81665 372.03012,604.62557 425.42133,553.17764 C 446.36694,532.99441 460.12764,507.41924 464.96415,479.68476 C 466.91183,468.51595 466.8991,447.81369 464.93819,437.47053 C 456.74686,394.26362 425.52901,359.78803 384.36731,348.49176 C 372.6554,345.27758 353.98111,344.17306 342.51528,346.01632 C 332.23192,347.66948 317.57057,352.95586 308.53193,358.26955 C 298.67728,364.06294 284.50585,378.54027 278.45767,388.99307 C 264.06016,413.8754 262.61029,439.11932 274.19927,463.13997 C 277.91925,470.85057 280.2524,474.11341 286.54697,480.40797 C 301.7635,495.62444 323.78695,502.70736 341.52149,498.0881 C 362.03213,492.74583 375.60565,476.67996 375.71303,457.61885 C 375.80102,442.01957 365.50291,431.63201 351.51341,433.20883 C 344.80812,433.96461 342.22183,436.98393 342.22183,444.05605 C 342.22183,451.6685 340.33607,453.46658 332.35981,453.4594 C 325.55532,453.45326 321.14691,451.46827 317.59461,446.81103 C 313.84937,441.90066 312.71073,438.17741 312.73022,430.90454 C 312.76315,418.62026 319.52713,406.40961 330.35738,399.08306 C 356.02506,381.71915 394.97937,394.89179 410.40854,426.15282 C 418.09681,441.72985 419.98782,458.34462 415.977,475.07436 C 408.56875,505.97511 386.21781,528.76266 353.63595,538.63313 C 345.66574,541.04763 343.12915,541.32744 329.08984,541.34069 C 316.24323,541.35279 312.03857,540.97224 305.66774,539.22069 C 272.92587,530.21891 247.86772,509.9359 233.62542,480.90709 C 200.08989,412.55468 240.5825,327.65809 317.47309,305.11245 C 330.21495,301.37634 342.71751,299.59143 356.17042,299.58793 C 424.85756,299.57014 486.10311,347.06866 504.65274,414.7421 C 508.60789,429.17118 510.11292,440.87375 510.10918,457.16851 C 510.09857,504.77539 491.36499,548.55705 456.20754,583.14098 C 425.15242,613.68955 386.26165,631.01876 342.09394,633.98858 C 269.07527,638.8983 198.56752,601.64065 158.38162,536.91145 C 145.63607,516.3817 136.53828,492.12042 131.50552,465.24066 C 129.31658,453.54958 128.49119,421.01698 130.04289,407.59145 C 134.73247,367.017 149.54482,330.39264 175.22047,295.88758 C 204.85897,256.05696 249.86772,226.05621 298.38242,213.79368 C 321.00792,208.07484 328.34758,207.23522 355.85889,207.21848 C 384.13073,207.20132 395.23453,208.60646 419.60396,215.28539 C 506.30666,239.04797 574.33832,308.69534 596.17923,396.05428 C 611.05676,455.5613 603.01837,520.23432 573.51848,578.37282 C 530.6972,662.76486 448.56382,718.02768 352.82843,726.86227 C 342.00949,727.8607 312.74164,728.06162 308.07564,727.16946 L 308.07564,727.16956 z"
       id="path3299" />
  </g>
</svg>
